<?xml version="1.0" encoding="utf-8"?>
<!-- Generator: Adobe Illustrator 19.0.0, SVG Export Plug-In . SVG Version: 6.00 Build 0)  -->
<svg version="1.1" id="Layer_1" xmlns="http://www.w3.org/2000/svg" xmlns:xlink="http://www.w3.org/1999/xlink" x="0px" y="0px"
	 viewBox="-138.6 349.6 94.6 94.9" style="enable-background:new -138.6 349.6 94.6 94.9;" xml:space="preserve">
<style type="text/css">
	.st0{fill:#fff;}
</style>
<g>
	<path class="st0" d="M-51.5,389.3c-3.5,0-6.5,2.3-7.4,5.7H-66c-0.4-5.3-2.5-10.4-6-14.4l5-5c1.2,0.7,2.5,1,3.8,1
		c2.1,0,4-0.8,5.5-2.2c2.9-3.1,2.9-7.8,0-10.9c-3.1-2.9-7.8-2.9-10.9,0c-2.5,2.5-3,6.3-1.2,9.3l-5,5c-4.1-3.4-9.1-5.5-14.4-5.9v-7.2
		c4.1-1.1,6.5-5.3,5.4-9.4c-1.1-4.1-5.3-6.5-9.4-5.4c-4.1,1.1-6.5,5.3-5.4,9.4c0.7,2.7,2.8,4.7,5.4,5.4v7.2
		c-5.3,0.4-10.3,2.5-14.4,5.9l-5-5c1.8-3,1.3-6.8-1.2-9.3c-3.1-2.9-7.8-2.9-10.9,0c-2.9,3.1-2.9,7.8,0,10.9c1.5,1.4,3.4,2.2,5.5,2.2
		c1.3,0,2.6-0.3,3.8-1l5,5c-3.5,4-5.6,9.1-6,14.4h-7.1c-1.1-4.1-5.3-6.5-9.4-5.4c-4.1,1.1-6.5,5.3-5.4,9.4c1.1,4.1,5.3,6.5,9.4,5.4
		c2.7-0.7,4.7-2.8,5.4-5.4h7c0.4,5.3,2.5,10.4,6,14.5l-4.9,4.9c-3-1.8-6.8-1.3-9.3,1.2c-2.9,3.1-2.9,7.8,0,10.9
		c1.5,1.4,3.5,2.2,5.5,2.2c2,0,3.9-0.8,5.4-2.2c2.5-2.5,3-6.3,1.2-9.3l4.9-4.9c4.1,3.5,9.1,5.7,14.5,6.1v6.9
		c-4.1,1.1-6.5,5.3-5.4,9.4s5.3,6.5,9.4,5.4c4.1-1.1,6.5-5.3,5.4-9.4c-0.7-2.7-2.8-4.7-5.4-5.4v-6.9c5.4-0.4,10.4-2.6,14.5-6.1
		l4.9,4.9c-1.8,3-1.3,6.8,1.2,9.3c3.1,2.9,7.8,2.9,10.9,0c2.9-3.1,2.9-7.8,0-10.9c-2.5-2.5-6.3-3-9.3-1.2l-4.9-4.9
		c3.5-4.1,5.6-9.2,6-14.5h7c1.2,4,5.4,6.4,9.4,5.2c4-1.2,6.4-5.4,5.2-9.4C-45.2,391.6-48.1,389.3-51.5,389.3z M-130.9,400.7
		c-2,0-3.7-1.7-3.7-3.7c0-2,1.7-3.7,3.7-3.7s3.7,1.7,3.7,3.7C-127.2,399-128.9,400.7-130.9,400.7L-130.9,400.7z M-65.7,366.4
		c0.7-0.7,1.6-1.1,2.5-1.1c1,0,1.9,0.4,2.6,1.1c1.4,1.3,1.5,3.5,0.2,4.9c0,0.1-0.1,0.1-0.2,0.2c-1.3,1.4-3.5,1.5-4.9,0.2
		c-0.1,0-0.1-0.1-0.2-0.2c-1.4-1.3-1.5-3.5-0.2-4.9C-65.8,366.5-65.8,366.4-65.7,366.4z M-94.9,357.3c0-2,1.7-3.7,3.7-3.7
		c2,0,3.7,1.7,3.7,3.7s-1.7,3.7-3.7,3.7C-93.2,361-94.9,359.3-94.9,357.3L-94.9,357.3z M-121.8,371.5c-1.4-1.3-1.5-3.5-0.2-4.9
		c0-0.1,0.1-0.1,0.2-0.2c0.7-0.7,1.6-1.1,2.6-1.1c0.9,0,1.8,0.4,2.5,1.1c1.4,1.3,1.5,3.5,0.2,4.9c0,0.1-0.1,0.1-0.2,0.2
		c-1.3,1.4-3.5,1.5-4.9,0.2C-121.7,371.6-121.8,371.6-121.8,371.5z M-95.8,404.4c-1-1.4-1.8-2.9-2.3-4.5v-0.6l-0.9-0.7l0,0l-0.6-3
		l0.3-0.4c0.2-0.1,0.4-0.3,0.5-0.5l0.5-0.5v-4.8c0-1.2,0.3-2.3,1.1-3.2c1.2-1.3,3.3-1.9,6.2-1.9s5,0.6,6.2,1.9
		c0.8,0.9,1.2,2,1.1,3.2v4.8l0.5,0.5l0.5,0.5l0.3,0.4l-0.5,2.9v0.2l-0.7,0.3l-0.7,0.4l-0.3,0.8c-0.5,1.3-1.2,2.5-2,3.6
		c-0.2,0.2-0.3,0.4-0.4,0.6l-0.5,0.5v1.8c0,1.4,0.8,2.8,2.1,3.4l7,4.1c-3.7,2.8-8.2,4.3-12.8,4.3c-4.6,0-9.1-1.5-12.8-4.3l6.7-4.2
		c1.2-0.7,1.9-1.9,2-3.3v-1.8L-95.8,404.4z M-116.7,427.6c-1.3,1.4-3.5,1.5-4.9,0.2c-0.1,0-0.1-0.1-0.2-0.2
		c-1.4-1.3-1.5-3.5-0.2-4.9c0-0.1,0.1-0.1,0.2-0.2c0.7-0.7,1.6-1.1,2.6-1.1c1,0,1.9,0.4,2.5,1.1c1.4,1.3,1.5,3.5,0.2,4.9
		C-116.6,427.5-116.6,427.6-116.7,427.6z M-87.5,436.7c0,2-1.7,3.7-3.7,3.7c-2,0-3.7-1.7-3.7-3.7s1.7-3.7,3.7-3.7l0,0
		C-89.2,433-87.5,434.7-87.5,436.7z M-60.6,422.5c1.4,1.4,1.4,3.7,0,5.1s-3.7,1.4-5.1,0c-1.4-1.4-1.4-3.7,0-5.1
		c0.6-0.7,1.5-1.1,2.5-1.1C-62.2,421.4-61.3,421.8-60.6,422.5z M-75.4,411.4l-8.2-4.8l0,0v-0.2c0-0.1,0.1-0.1,0.1-0.2
		c0.9-1.2,1.6-2.5,2.2-3.9c1.3-0.5,2.2-1.8,2.3-3.2l0.6-3.4v-0.4c-0.1-1.1-0.6-2.1-1.4-2.8v-2.8c0.2-2.3-0.6-4.5-2.2-6.2
		c-2-2.1-5-3.2-9.1-3.2s-7.1,1.1-9.1,3.2c-1.5,1.7-2.3,3.9-2.2,6.2v2.8c-0.8,0.7-1.3,1.7-1.4,2.8l0.7,3.8c0,1,0.5,2,1.4,2.6
		c0.6,1.6,1.4,3.2,2.4,4.6v0.2l-7.8,4.8c-3.5-3.9-5.4-9-5.4-14.2c0-11.8,9.6-21.3,21.3-21.3s21.3,9.6,21.3,21.3
		C-69.9,402.4-71.9,407.5-75.4,411.4z M-51.5,400.7c-2,0.1-3.7-1.6-3.8-3.6c-0.1-2,1.6-3.7,3.6-3.8c2-0.1,3.7,1.6,3.8,3.6
		c0,0,0,0.1,0,0.1C-47.9,399-49.5,400.6-51.5,400.7z"/>
</g>
</svg>
