<?xml version="1.0" encoding="utf-8"?>
<!-- Generator: Adobe Illustrator 19.0.0, SVG Export Plug-In . SVG Version: 6.00 Build 0)  -->
<svg version="1.1" id="Layer_1" xmlns="http://www.w3.org/2000/svg" xmlns:xlink="http://www.w3.org/1999/xlink" x="0px" y="0px"
	 viewBox="0 0 340.2 141.7" style="enable-background:new 0 0 340.2 141.7;" xml:space="preserve">
<style type="text/css">
	.st0{fill:#FFFFFF;}
	.st1{fill:#0062A6;}
</style>
<g>
	<path class="st0" d="M71.9,104.5c5.6,0,11.2-1.3,16.3-3.7c5-2.4,7.5-6,11-10.3l1.4-1.7h4.2h16.6h9.6c-5.1,12.7-16.3,25.1-24.2,30.6
		c-10.3,7.2-22.3,11-34.9,11c-33.4,0-60.5-26.7-60.5-59.6c0-32.9,27.1-59.6,60.5-59.6c12.4,0,24.4,3.7,34.6,10.7
		c8.4,5.8,19.4,19.2,25,33H122h-16.3h-4.3l-1.4-1.8c-3.1-4.2-5.1-7.7-9.6-10.2c-5.6-3.2-12-4.8-18.5-4.8
		c-20.6,0-33.1,20.3-33.3,32.8C38.3,86.6,51.3,104.5,71.9,104.5z"/>
	<path class="st1" d="M69.4,0C55,0.5,40.5,5.3,28.2,14.6C-3.3,38.4-9.3,82.9,14.8,114c24.2,31.1,69.3,37,100.8,13.2
		c12.3-9.3,21.8-23.5,25-35.4L169,0L69.4,0z M72,106.1c5.4,0,10.8-1.2,15.7-3.6c4.8-2.3,9.2-5.8,12.5-9.9l1.3-1.7h2.1h15.9h7.3
		c-4.9,12.2-13.7,21.2-21.3,26.5C95.7,124.3,84.1,128,72,128c-32,0-58-25.7-58-57.2c0-31.5,26-57.2,58-57.2
		c11.9,0,23.4,3.6,33.2,10.3c8,5.5,16.7,14.6,22,27.9h-7.1h-15.7h-2.2l-1.3-1.8c-3-4-6.8-7.4-11.2-9.8c-5.4-3-11.5-4.6-17.7-4.6
		c-19.7,0-35.8,15.8-35.8,35.3C36.2,90.3,52.3,106.1,72,106.1z"/>
	<path class="st0" d="M166.5,33.3c1.1-2.9,2.6-5.3,4.6-7.3c2-2,4.4-3.6,7.2-4.7c2.8-1.1,6-1.7,9.5-1.7c3.5,0,6.7,0.5,9.5,1.7
		c2.8,1.1,5.3,2.7,7.3,4.7c2,2,3.6,4.4,4.6,7.3c1.1,2.9,1.6,6,1.6,9.5c0,3.5-0.5,6.7-1.6,9.5c-1.1,2.8-2.6,5.2-4.6,7.3
		c-2,2-4.4,3.5-7.3,4.6c-2.8,1.1-6,1.6-9.5,1.6c-3.5,0-6.7-0.5-9.5-1.6c-2.8-1.1-5.2-2.6-7.2-4.6c-2-2-3.6-4.4-4.6-7.3
		c-1.1-2.8-1.6-6-1.6-9.5C164.9,39.4,165.4,36.2,166.5,33.3 M177.6,48c0.3,1.7,0.9,3.2,1.8,4.5c0.8,1.3,1.9,2.4,3.3,3.2
		c1.4,0.8,3.1,1.2,5.2,1.2c2.1,0,3.8-0.4,5.2-1.2c1.4-0.8,2.5-1.8,3.4-3.2c0.8-1.3,1.4-2.8,1.8-4.5c0.3-1.7,0.5-3.4,0.5-5.1
		c0-1.8-0.2-3.5-0.5-5.2c-0.3-1.7-0.9-3.2-1.8-4.5c-0.8-1.3-2-2.4-3.4-3.2c-1.4-0.8-3.1-1.2-5.2-1.2c-2.1,0-3.8,0.4-5.2,1.2
		c-1.4,0.8-2.5,1.9-3.3,3.2c-0.8,1.3-1.4,2.8-1.8,4.5c-0.3,1.7-0.5,3.4-0.5,5.2C177.1,44.6,177.3,46.3,177.6,48z"/>
	<path class="st0" d="M225.8,20.9V27h0.3c1.5-2.5,3.6-4.4,6-5.6c2.5-1.2,5-1.7,7.6-1.7c3.3,0,6,0.4,8,1.3c2.1,0.9,3.7,2.1,4.9,3.6
		c1.2,1.6,2.1,3.4,2.5,5.7c0.5,2.2,0.7,4.7,0.7,7.4v27h-12.2V40c0-3.6-0.6-6.3-1.7-8.1c-1.1-1.8-3.2-2.7-6.1-2.7
		c-3.3,0-5.7,1-7.2,2.9c-1.5,1.9-2.2,5.2-2.2,9.6v23h-12.2V20.9H225.8z"/>
	<path class="st0" d="M162.1,111.7c1.8,1.8,4.5,3,7.9,3c2.5,0,4.6-0.6,6.4-1.8c1.8-1.2,2.9-2.5,3.3-3.9h10.8
		c-1.7,5.3-4.4,9-7.9,11.3c-3.6,2.3-7.9,3.4-12.9,3.4c-3.5,0-6.7-0.6-9.5-1.7c-2.8-1.1-5.2-2.7-7.1-4.7c-1.9-2-3.5-4.5-4.5-7.3
		c-1.1-2.8-1.6-5.9-1.6-9.3c0-3.3,0.5-6.3,1.6-9.2c1.1-2.8,2.6-5.3,4.6-7.3c2-2.1,4.4-3.7,7.2-4.9c2.8-1.2,5.9-1.8,9.2-1.8
		c3.8,0,7.1,0.7,9.9,2.2c2.8,1.4,5.1,3.4,6.9,5.8c1.8,2.4,3.1,5.2,3.9,8.3c0.8,3.1,1.1,6.4,0.9,9.7h-32.1
		C159,106.9,159.8,109.5,162.1,111.7 M176.2,89.4c-1.7-1.8-4-2.8-7-2.8c-2,0-3.6,0.3-4.9,1c-1.3,0.7-2.3,1.5-3.1,2.4
		c-0.8,1-1.3,2-1.6,3.1c-0.3,1.1-0.5,2-0.6,2.9h19.9C178.8,93.6,177.9,91.2,176.2,89.4z"/>
	<path class="st0" d="M279.5,111.7c1.8,1.8,4.5,3,7.9,3c2.5,0,4.6-0.6,6.4-1.8c1.8-1.2,2.9-2.5,3.3-3.9h10.8
		c-1.7,5.3-4.4,9-7.9,11.3c-3.6,2.3-7.9,3.4-12.9,3.4c-3.5,0-6.7-0.6-9.5-1.7c-2.8-1.1-5.2-2.7-7.1-4.7c-2-2-3.5-4.5-4.5-7.3
		c-1.1-2.8-1.6-5.9-1.6-9.3c0-3.3,0.5-6.3,1.6-9.2c1.1-2.8,2.6-5.3,4.6-7.3c2-2.1,4.4-3.7,7.2-4.9c2.8-1.2,5.9-1.8,9.2-1.8
		c3.8,0,7.1,0.7,9.9,2.2c2.8,1.4,5.1,3.4,6.9,5.8c1.8,2.4,3.1,5.2,3.9,8.3c0.8,3.1,1.1,6.4,0.9,9.7h-32.1
		C276.4,106.9,277.3,109.5,279.5,111.7 M293.7,89.4c-1.7-1.8-4-2.8-7-2.8c-2,0-3.6,0.3-4.9,1c-1.3,0.7-2.3,1.5-3.1,2.4
		c-0.8,1-1.3,2-1.6,3.1c-0.3,1.1-0.5,2-0.6,2.9h19.9C296.2,93.6,295.3,91.2,293.7,89.4z"/>
	<path class="st0" d="M274,53.9c1.8,1.8,4.5,3,7.9,3c2.5,0,4.6-0.6,6.4-1.8c1.8-1.2,2.9-2.5,3.3-3.9h10.8c-1.7,5.3-4.4,9-7.9,11.3
		c-3.6,2.3-7.9,3.4-12.9,3.4c-3.5,0-6.7-0.6-9.5-1.7c-2.8-1.1-5.2-2.7-7.1-4.7c-1.9-2-3.5-4.5-4.5-7.3c-1.1-2.8-1.6-5.9-1.6-9.3
		c0-3.3,0.5-6.3,1.6-9.2c1.1-2.8,2.6-5.3,4.6-7.3c2-2.1,4.4-3.7,7.2-4.9c2.8-1.2,5.9-1.8,9.3-1.8c3.8,0,7.1,0.7,9.9,2.2
		c2.8,1.4,5.1,3.4,6.9,5.8c1.8,2.4,3.1,5.2,3.9,8.3c0.8,3.1,1.1,6.4,0.9,9.7H271C270.9,49.1,271.7,51.7,274,53.9 M288.1,31.6
		c-1.7-1.8-4-2.8-7-2.8c-2,0-3.6,0.3-4.9,1c-1.3,0.7-2.3,1.5-3.1,2.4c-0.8,1-1.3,2-1.6,3.1c-0.3,1.1-0.5,2-0.6,2.9h19.9
		C290.7,35.8,289.8,33.3,288.1,31.6z"/>
	<path class="st0" d="M205.7,78.7v6.1h0.3c1.5-2.5,3.6-4.4,6-5.6c2.5-1.2,5-1.7,7.6-1.7c3.3,0,6,0.4,8,1.3c2.1,0.9,3.7,2.1,4.9,3.6
		c1.2,1.6,2,3.4,2.5,5.7c0.5,2.2,0.7,4.7,0.7,7.4v27h-12.2V97.8c0-3.6-0.6-6.3-1.7-8.1c-1.1-1.8-3.2-2.7-6.1-2.7
		c-3.3,0-5.7,1-7.2,2.9c-1.5,1.9-2.2,5.2-2.2,9.6v23h-12.2V78.7H205.7z"/>
	<path class="st0" d="M264.9,78.7v8.1h-8.9v21.7c0,2,0.3,3.4,1,4.1c0.7,0.7,2.1,1,4.1,1c0.7,0,1.3,0,2-0.1c0.6-0.1,1.2-0.1,1.8-0.3
		v9.3c-1,0.2-2.2,0.3-3.4,0.3c-1.3,0.1-2.5,0.1-3.7,0.1c-1.9,0-3.7-0.1-5.4-0.4c-1.7-0.3-3.2-0.8-4.5-1.5c-1.3-0.7-2.3-1.8-3.1-3.1
		c-0.7-1.4-1.1-3.1-1.1-5.3V86.8h-7.4v-8.1h7.4V68.5h12.2v10.2H264.9z"/>
	<path class="st0" d="M323.1,78.7v8.1h0.2c0.6-1.4,1.3-2.6,2.3-3.8c1-1.2,2.1-2.1,3.4-3c1.3-0.8,2.6-1.5,4-1.9
		c3.6-1,7.1-0.3,7.1-0.3v11.2c-0.6-0.1-1.3-0.2-2.1-0.3c-0.8-0.1-1.6-0.1-2.3-0.1c-2.2,0-4.1,0.4-5.7,1.1c-1.5,0.7-2.8,1.7-3.7,3
		c-0.9,1.3-1.6,2.8-2,4.5c-0.4,1.7-0.6,3.5-0.6,5.5v19.8h-12.2V78.7H323.1z"/>
</g>
</svg>
