<?xml version="1.0" encoding="utf-8"?>
<!-- Generator: Adobe Illustrator 19.0.0, SVG Export Plug-In . SVG Version: 6.00 Build 0)  -->
<svg version="1.1" id="Layer_1" xmlns="http://www.w3.org/2000/svg" xmlns:xlink="http://www.w3.org/1999/xlink" x="0px" y="0px"
	 viewBox="0 0 871.6 106.7" style="enable-background:new 0 0 871.6 106.7;" xml:space="preserve">
<style type="text/css">
	.st0{fill:#fff;}
</style>
<path class="st0" d="M51.5,0C40.8,0.4,30.1,4,20.9,11C-2.5,28.9-6.9,62.4,11,85.8c17.9,23.4,51.4,27.8,74.8,9.9
	c9.2-7,16.1-17.7,18.5-26.7l21-69L51.5,0z M53.4,79.9c4,0,8-0.9,11.6-2.7c3.6-1.8,6.8-4.3,9.3-7.5l1-1.2h1.6h11.8H94
	c-3.6,9.2-10.1,16-15.8,20c-7.3,5.2-15.9,7.9-24.9,7.9c-23.7,0-43-19.3-43-43c0-23.7,19.3-43,43-43c8.8,0,17.3,2.7,24.6,7.7
	c6,4.2,12.4,11,16.3,21h-5.3H77.5h-1.7l-1-1.3c-2.2-3-5.1-5.6-8.3-7.4c-4-2.3-8.5-3.5-13.2-3.5c-14.6,0-26.6,11.9-26.6,26.6
	S38.8,79.9,53.4,79.9z"/>
<path class="st0" d="M779.6,68.6c0.2,5.3,1.6,9.1,4.1,11.6c2.5,2.4,6.1,3.7,10.7,3.7c3.3,0,6.2-0.8,8.6-2.5c2.4-1.7,3.9-3.4,4.4-5.3
	H822c-2.3,7.1-5.9,12.3-10.7,15.5c-4.8,3.2-10.6,4.8-17.5,4.8c-4.7,0-9-0.8-12.8-2.3c-3.8-1.6-7-3.7-9.7-6.5
	c-2.6-2.8-4.7-6.1-6.1-10c-1.4-3.9-2.2-8.1-2.2-12.8c0-4.5,0.7-8.7,2.2-12.6c1.5-3.9,3.6-7.2,6.3-10.1c2.7-2.8,6-5.1,9.7-6.7
	c3.8-1.6,7.9-2.4,12.5-2.4c5.1,0,9.6,1,13.4,3c3.8,2,6.9,4.6,9.4,8c2.4,3.3,4.2,7.1,5.3,11.4c1.1,4.3,1.5,8.7,1.2,13.4H779.6z
	 M806.5,58.2c-0.8-4.2-2.2-7.4-4.1-9.5c-2-2.2-5-3.3-9-3.3c-2.6,0-4.8,0.4-6.6,1.3c-1.7,0.9-3.1,2-4.2,3.3c-1,1.3-1.8,2.7-2.2,4.2
	c-0.4,1.5-0.7,2.8-0.8,4H806.5z M746,34.5h12.1v11.1H746v29.8c0,2.8,0.5,4.7,1.4,5.6c0.9,0.9,2.8,1.4,5.6,1.4c1.9,0,3.6-0.2,5.1-0.5
	v12.9c-1.4,0.2-2.9,0.4-4.7,0.5c-1.7,0.1-3.4,0.1-5,0.1c-2.6,0-5-0.2-7.3-0.5c-2.3-0.4-4.3-1-6-2.1c-1.7-1-3.1-2.5-4.1-4.4
	c-1-1.9-1.5-4.3-1.5-7.3V45.6h-10V34.5h10v-18H746V34.5z M656.1,34.5h15.7v8.4h0.3c2.1-3.4,4.8-5.9,8.1-7.6
	c3.3-1.6,6.7-2.4,10.2-2.4c4.4,0,8,0.6,10.9,1.8c2.8,1.2,5.1,2.9,6.7,5c1.6,2.1,2.8,4.7,3.4,7.8c0.7,3.1,1,6.5,1,10.2v37H696v-34
	c0-5-0.8-8.7-2.4-11.1c-1.6-2.4-4.3-3.7-8.2-3.7c-4.5,0-7.8,1.3-9.8,4c-2,2.7-3,7.1-3,13.2v31.5h-16.5V34.5z M602.9,68.6
	c0.2,5.3,1.6,9.1,4.1,11.6c2.5,2.4,6.1,3.7,10.7,3.7c3.3,0,6.2-0.8,8.6-2.5c2.4-1.7,3.9-3.4,4.4-5.3h14.5
	c-2.3,7.1-5.9,12.3-10.7,15.5c-4.8,3.2-10.6,4.8-17.5,4.8c-4.7,0-9-0.8-12.8-2.3c-3.8-1.6-7-3.7-9.7-6.5c-2.6-2.8-4.7-6.1-6.1-10
	c-1.4-3.9-2.2-8.1-2.2-12.8c0-4.5,0.7-8.7,2.2-12.6c1.5-3.9,3.6-7.2,6.3-10.1c2.7-2.8,6-5.1,9.7-6.7c3.8-1.6,7.9-2.4,12.5-2.4
	c5.1,0,9.6,1,13.4,3c3.8,2,6.9,4.6,9.4,8c2.4,3.3,4.2,7.1,5.3,11.4c1.1,4.3,1.5,8.7,1.2,13.4H602.9z M629.8,58.2
	c-0.8-4.2-2.2-7.4-4.1-9.5c-2-2.2-5-3.3-9-3.3c-2.6,0-4.8,0.4-6.6,1.3c-1.7,0.9-3.1,2-4.2,3.3c-1,1.3-1.8,2.7-2.2,4.2
	c-0.4,1.5-0.7,2.8-0.8,4H629.8z M406.7,68.6c0.2,5.3,1.6,9.1,4.1,11.6c2.5,2.4,6.1,3.7,10.7,3.7c3.3,0,6.2-0.8,8.6-2.5
	c2.4-1.7,3.9-3.4,4.4-5.3H449c-2.3,7.1-5.9,12.3-10.7,15.5c-4.8,3.2-10.6,4.8-17.5,4.8c-4.7,0-9-0.8-12.8-2.3
	c-3.8-1.6-7-3.7-9.7-6.5c-2.6-2.8-4.7-6.1-6.1-10c-1.4-3.9-2.1-8.1-2.1-12.8c0-4.5,0.7-8.7,2.2-12.6c1.5-3.9,3.6-7.2,6.3-10.1
	c2.7-2.8,6-5.1,9.7-6.7c3.8-1.6,7.9-2.4,12.5-2.4c5.1,0,9.6,1,13.4,3c3.8,2,6.9,4.6,9.4,8c2.4,3.3,4.2,7.1,5.3,11.4
	c1.1,4.3,1.5,8.7,1.2,13.4H406.7z M433.6,58.2c-0.8-4.2-2.2-7.4-4.1-9.5c-2-2.2-5-3.3-9-3.3c-2.6,0-4.8,0.4-6.6,1.3
	c-1.7,0.9-3.1,2-4.2,3.3c-1,1.3-1.8,2.7-2.2,4.2c-0.4,1.5-0.7,2.8-0.8,4H433.6z M324.1,34.5h15.7v8.4h0.3c2.1-3.4,4.8-5.9,8.1-7.6
	c3.3-1.6,6.7-2.4,10.2-2.4c4.4,0,8,0.6,10.9,1.8c2.8,1.2,5.1,2.9,6.7,5c1.6,2.1,2.8,4.7,3.4,7.8c0.7,3.1,1,6.5,1,10.2v37H364v-34
	c0-5-0.8-8.7-2.4-11.1c-1.6-2.4-4.3-3.7-8.2-3.7c-4.5,0-7.8,1.3-9.8,4c-2,2.7-3,7.1-3,13.2v31.5h-16.5V34.5z M251.1,64.7
	c0-4.8,0.7-9.2,2.2-13.1c1.5-3.9,3.6-7.2,6.3-10c2.7-2.8,6-4.9,9.8-6.4c3.8-1.5,8.1-2.3,12.8-2.3c4.7,0,9,0.8,12.9,2.3
	c3.8,1.5,7.1,3.6,9.8,6.4c2.7,2.8,4.8,6.1,6.3,10c1.5,3.9,2.2,8.3,2.2,13.1c0,4.8-0.7,9.2-2.2,13c-1.5,3.9-3.6,7.2-6.3,9.9
	c-2.7,2.8-6,4.9-9.8,6.4c-3.8,1.5-8.1,2.3-12.9,2.3c-4.7,0-9-0.8-12.8-2.3c-3.8-1.5-7.1-3.6-9.8-6.4c-2.7-2.8-4.8-6.1-6.3-9.9
	C251.9,73.8,251.1,69.5,251.1,64.7z M871.6,33.5v15.4c-0.8-0.2-1.7-0.3-2.8-0.4c-1.1-0.1-2.1-0.2-3.1-0.2c-3,0-5.6,0.5-7.7,1.5
	c-2.1,1-3.8,2.4-5.1,4.1c-1.3,1.7-2.2,3.8-2.7,6.2c-0.5,2.4-0.8,4.9-0.8,7.5v27.1h-16.5V34.5h15.7v11.2h0.2c0.8-1.9,1.8-3.6,3.1-5.2
	c1.3-1.6,2.8-2.9,4.5-4.1c1.7-1.1,3.5-2,5.5-2.6c2-0.6,4-0.9,6-0.9C869.2,32.9,870.4,33.1,871.6,33.5z M267.6,64.7
	c0,2.4,0.2,4.8,0.7,7c0.5,2.3,1.3,4.3,2.4,6.2c1.1,1.8,2.6,3.3,4.5,4.4c1.9,1.1,4.2,1.6,7,1.6c2.8,0,5.1-0.5,7-1.6
	c1.9-1.1,3.4-2.5,4.5-4.4c1.1-1.8,1.9-3.9,2.4-6.2c0.5-2.3,0.7-4.6,0.7-7c0-2.4-0.2-4.8-0.7-7.1c-0.5-2.3-1.3-4.4-2.4-6.2
	c-1.1-1.8-2.6-3.2-4.5-4.4c-1.9-1.1-4.2-1.7-7-1.7c-2.8,0-5.1,0.6-7,1.7c-1.9,1.1-3.4,2.6-4.5,4.4c-1.1,1.8-1.9,3.8-2.4,6.2
	C267.9,59.9,267.6,62.3,267.6,64.7z"/>
<path class="st0" d="M201.5,79.9c4,0,8-0.9,11.6-2.7c3.6-1.8,6.8-4.3,9.3-7.5l1-1.2h1.6h11.8h5.4c-3.6,9.2-10.1,16-15.8,20
	c-7.3,5.2-15.9,7.9-24.9,7.9c-23.7,0-43-19.3-43-43c0-23.7,19.3-43,43-43c8.8,0,17.3,2.7,24.6,7.7c6,4.2,12.4,11,16.3,21h-5.3h-11.6
	h-1.7l-1-1.3c-2.2-3-5.1-5.6-8.3-7.4c-4-2.3-8.5-3.5-13.1-3.5c-14.6,0-26.6,11.9-26.6,26.6S186.9,79.9,201.5,79.9"/>
<path class="st0" d="M536,79.9c4,0,8-0.9,11.6-2.7c3.6-1.8,6.8-4.3,9.3-7.5l1-1.2h1.6h11.8h5.4c-3.6,9.2-10.1,16-15.8,20
	c-7.3,5.2-15.9,7.9-24.9,7.9c-23.7,0-43-19.3-43-43c0-23.7,19.3-43,43-43c8.8,0,17.3,2.7,24.6,7.7c6,4.2,12.4,11,16.3,21h-5.3H560
	h-1.7l-1-1.3c-2.2-3-5.1-5.6-8.3-7.4c-4-2.3-8.5-3.5-13.1-3.5c-14.6,0-26.6,11.9-26.6,26.6S521.3,79.9,536,79.9"/>
</svg>
