<?xml version="1.0" encoding="utf-8"?>
<!-- Generator: Adobe Illustrator 19.0.0, SVG Export Plug-In . SVG Version: 6.00 Build 0)  -->
<svg version="1.1" id="Layer_1" xmlns="http://www.w3.org/2000/svg" xmlns:xlink="http://www.w3.org/1999/xlink" x="0px" y="0px"
	 viewBox="-251 348.1 92 97.9" style="enable-background:new -251 348.1 92 97.9;" xml:space="preserve">
<style type="text/css">
	.st0{fill:#fff;}
</style>
<g>
	<path class="st0" d="M-244,415.5h37.9c3.9,0,7-3.1,7-7v-39.3c0-0.2,0-0.3,0-0.5c0-0.1-0.1-0.2-0.1-0.3c0,0,0-0.1-0.1-0.2
		c0-0.1-0.1-0.2-0.2-0.3l-0.1-0.1c-0.1-0.1-0.2-0.3-0.3-0.4l-18.8-18.8c-0.1-0.1-0.3-0.2-0.4-0.3v0c-0.1-0.1-0.2-0.1-0.3-0.2h-0.2
		c-0.1,0-0.2-0.1-0.3-0.1c-0.2,0-0.3,0-0.5,0H-244c-3.8,0-6.9,3.1-7,6.9v53.5C-251,412.4-247.9,415.5-244,415.5z M-217.9,356.5
		l10.2,10.2h-10.2V356.5z M-246,355c0-1.1,0.9-2,2-2h21.1v13.7c0,2.8,2.3,5.1,5.1,5.1h13.7v36.8c0,1.1-0.9,2-2,2H-244
		c-1.1,0-2-0.9-2-2V355z"/>
	<path class="st0" d="M-159.2,396.4c0-0.1-0.1-0.2-0.2-0.3l-0.1-0.1c-0.1-0.1-0.2-0.3-0.3-0.4l-18.8-18.7c-0.1-0.1-0.2-0.2-0.4-0.3
		l-0.1-0.1c-0.1-0.1-0.2-0.1-0.3-0.2l-0.2-0.1c-0.1,0-0.2-0.1-0.3-0.1c-0.2,0-0.3,0-0.5,0h-11.7c-1.4,0-2.5,1.1-2.5,2.5
		s1.1,2.5,2.5,2.5l0,0h9.2v13.7c0,2.8,2.3,5.1,5.1,5.1h13.7v36.7c0,1.1-0.9,2-2,2h-37.9c-1.1,0-2-0.9-2-2V423c0-1.4-1.1-2.5-2.5-2.5
		s-2.5,1.1-2.5,2.5v13.7c0,3.9,3.1,7,7,7h37.9c3.9,0,7-3.1,7-7v-39.3c0-0.2,0-0.3,0-0.5c0-0.1-0.1-0.2-0.1-0.3
		C-159.2,396.5-159.2,396.5-159.2,396.4z M-177.8,394.8v-10.2l10.2,10.2L-177.8,394.8z"/>
	<path class="st0" d="M-188.4,367.1c1,1,2.6,1,3.5,0s1-2.6,0-3.5l0,0l-2.7-2.7h5.4c6,0,10.8,4.9,10.8,10.9c0,1.4,1.1,2.5,2.5,2.5
		c1.4,0,2.5-1.1,2.5-2.5c0-8.7-7.1-15.8-15.8-15.9h-5.4l2.7-2.7c1-1,0.9-2.6-0.1-3.5c-1-0.9-2.5-0.9-3.5,0l-7,7c-1,1-1,2.6,0,3.5
		c0,0,0,0,0,0L-188.4,367.1z"/>
	<path class="st0" d="M-227.2,445.3c1,1,2.6,1,3.5,0c0,0,0,0,0,0l7-7c1-1,1-2.6,0-3.5c0,0,0,0,0,0l-7-7c-1-1-2.6-1-3.5,0
		c-1,1-1,2.6,0,3.5l2.7,2.7h-5.5c-6,0-10.8-4.8-10.8-10.8c0-1.4-1.1-2.5-2.5-2.5s-2.5,1.1-2.5,2.5c0,8.7,7.1,15.8,15.8,15.8h5.4
		l-2.7,2.7C-228.2,442.7-228.2,444.2-227.2,445.3C-227.3,445.2-227.2,445.3-227.2,445.3z"/>
</g>
</svg>
