<?xml version="1.0" encoding="utf-8"?>
<!-- Generator: Adobe Illustrator 19.0.0, SVG Export Plug-In . SVG Version: 6.00 Build 0)  -->
<svg version="1.1" id="Layer_1" xmlns="http://www.w3.org/2000/svg" xmlns:xlink="http://www.w3.org/1999/xlink" x="0px" y="0px"
	 viewBox="-341.1 361.4 74.1 69.3" style="enable-background:new -341.1 361.4 74.1 69.3;" xml:space="preserve">
<style type="text/css">
	.st0{fill:#fff;}
</style>
<g>
	<path class="st0" d="M-274.6,365h-3.6v-1.3c0-1.3-1-2.3-2.3-2.3c-1.3,0-2.3,1-2.3,2.3v1.3H-302v-1.3c0-1.3-1-2.3-2.3-2.3
		s-2.3,1-2.3,2.3v1.3h-19.2v-1.3c0-1.3-1-2.3-2.3-2.3c-1.3,0-2.3,1-2.3,2.3v1.3h-3c-5.5,0-7.5,2.3-7.5,7.5V424
		c0.2,5.3,3.4,6.7,7.5,6.7h59c4.2,0,7.5-2.6,7.5-6.7v-51.4C-267.1,367.8-268.1,365-274.6,365z M-333.6,369.7h3v1.9
		c0,1.3,1,2.3,2.3,2.3c1.3,0,2.3-1,2.3-2.3v-1.9h19.2v1.9c0,1.3,1,2.3,2.3,2.3s2.3-1,2.3-2.3v-1.9h19.2v1.9c0,1.3,1,2.3,2.3,2.3
		c1.3,0,2.3-1,2.3-2.3v-1.9h3.6c1.6,0,2.9,1.3,2.9,2.9v9.6h-64.7v-9.6C-336.4,371-335.1,369.7-333.6,369.7z M-274.6,426h-59
		c-1.6,0-2.9-1.3-2.9-2.9v-36.3h64.7v36.3C-271.7,424.7-273,426-274.6,426z"/>
	<g>
		<g>
			<path class="st0" d="M-325.8,413.2v-10.7c-2,1.5-3.3,2.3-4,2.3c-0.3,0-0.6-0.1-0.9-0.4s-0.4-0.6-0.4-0.9c0-0.4,0.1-0.7,0.4-0.9
				s0.7-0.4,1.3-0.7c0.9-0.4,1.7-0.9,2.3-1.4s1.1-1,1.5-1.7s0.7-1,0.9-1.1s0.4-0.2,0.8-0.2c0.4,0,0.7,0.2,1,0.5
				c0.3,0.3,0.4,0.8,0.4,1.3v13.4c0,1.6-0.5,2.4-1.6,2.4c-0.5,0-0.9-0.2-1.1-0.5S-325.8,413.8-325.8,413.2z"/>
			<path class="st0" d="M-324.3,415.6c-0.6,0-1.1-0.2-1.5-0.6c-0.4-0.4-0.6-1-0.6-1.8v-9.7c-2.2,1.6-3,1.8-3.5,1.8
				c-0.5,0-0.9-0.2-1.2-0.5c-0.3-0.4-0.5-0.8-0.5-1.3c0-0.7,0.3-1.1,0.6-1.3c0.3-0.2,0.7-0.5,1.4-0.8c0.9-0.4,1.6-0.9,2.2-1.3
				c0.5-0.5,1-1,1.4-1.6c0.6-0.8,0.8-1.1,0.9-1.2c0.2-0.2,0.6-0.4,1.1-0.4c0.6,0,1,0.2,1.4,0.7c0.3,0.4,0.5,1,0.5,1.6v13.4
				C-322.1,415.2-323.5,415.6-324.3,415.6z M-325.3,401.5v11.7c0,0.5,0.1,0.9,0.3,1.1c0.2,0.2,0.4,0.3,0.8,0.3c0.3,0,1.1,0,1.1-1.9
				v-13.4c0-0.4-0.1-0.8-0.3-1c-0.2-0.2-0.3-0.3-0.6-0.3c-0.3,0-0.4,0.1-0.4,0.1c-0.1,0.1-0.3,0.3-0.8,1.1c-0.5,0.6-1,1.2-1.6,1.7
				c-0.6,0.5-1.4,1-2.4,1.5c-0.7,0.4-1.1,0.6-1.2,0.7c0,0-0.2,0.1-0.2,0.5c0,0.2,0.1,0.4,0.2,0.6c0.2,0.2,0.3,0.2,0.5,0.2
				c0.3,0,1.2-0.3,3.7-2.2L-325.3,401.5z"/>
		</g>
		<g>
			<path class="st0" d="M-308.6,407.1c-0.5,0.6-1.1,1.1-1.7,1.4s-1.3,0.5-2.1,0.5c-0.7,0-1.4-0.1-2.1-0.4s-1.2-0.7-1.7-1.2
				s-0.8-1.1-1.1-1.8s-0.4-1.4-0.4-2.2c0-0.8,0.1-1.6,0.4-2.3s0.7-1.3,1.2-1.9s1.1-0.9,1.9-1.2c0.7-0.3,1.5-0.4,2.4-0.4
				c1,0,1.9,0.2,2.7,0.6c0.8,0.4,1.5,0.9,2,1.6s1,1.6,1.2,2.6s0.4,2.3,0.4,3.6c0,1.5-0.2,2.8-0.5,4s-0.7,2.1-1.3,2.9
				s-1.3,1.4-2.1,1.7s-1.7,0.6-2.8,0.6c-1,0-1.9-0.2-2.6-0.6s-1.3-0.9-1.7-1.4s-0.6-1.1-0.6-1.7c0-0.3,0.1-0.6,0.4-0.9
				s0.6-0.4,0.9-0.4c0.3,0,0.7,0.1,0.9,0.3s0.5,0.5,0.6,0.9c0.2,0.5,0.5,0.8,0.9,1.1s0.8,0.4,1.3,0.4c0.4,0,0.9-0.1,1.3-0.3
				s0.7-0.5,1-1C-309,410.7-308.7,409.2-308.6,407.1z M-308.8,403.5c0-0.5-0.1-1-0.2-1.5s-0.3-0.8-0.6-1.2s-0.6-0.6-0.9-0.8
				s-0.8-0.3-1.2-0.3c-0.7,0-1.4,0.3-1.9,1s-0.8,1.5-0.8,2.5c0,1,0.3,1.9,0.8,2.5s1.2,0.9,2,0.9c0.5,0,0.9-0.1,1.4-0.4
				s0.8-0.6,1.1-1.1S-308.8,404.1-308.8,403.5z"/>
			<path class="st0" d="M-312,415.5c-1.1,0-2.1-0.2-2.9-0.6c-0.8-0.4-1.5-1-1.9-1.6c-0.4-0.7-0.7-1.3-0.7-1.9c0-0.5,0.2-0.9,0.5-1.2
				c0.6-0.7,1.7-0.7,2.5-0.2c0.4,0.3,0.6,0.6,0.8,1.1c0.1,0.4,0.4,0.7,0.7,0.9c0.6,0.4,1.4,0.4,2.1,0.1c0.3-0.2,0.6-0.5,0.9-0.8
				c0.4-0.6,0.7-1.5,0.8-2.9c-0.3,0.2-0.6,0.4-0.9,0.6c-1.4,0.7-3.2,0.7-4.6,0c-0.7-0.3-1.3-0.8-1.8-1.3c-0.5-0.6-0.9-1.2-1.2-2
				c-0.3-0.7-0.4-1.5-0.4-2.3c0-0.9,0.2-1.7,0.5-2.5c0.3-0.8,0.7-1.5,1.3-2c0.6-0.6,1.3-1,2-1.4c0.8-0.3,1.6-0.5,2.6-0.5
				c1.1,0,2.1,0.2,2.9,0.6c0.9,0.4,1.6,1,2.2,1.7c0.6,0.7,1,1.7,1.3,2.8c0.3,1.1,0.5,2.4,0.5,3.7c0,1.5-0.2,2.9-0.5,4.1
				c-0.3,1.2-0.8,2.2-1.4,3.1c-0.6,0.8-1.4,1.5-2.3,1.9C-309.9,415.3-310.9,415.5-312,415.5z M-315.6,410.6c-0.2,0-0.4,0.1-0.6,0.2
				c-0.2,0.2-0.2,0.3-0.2,0.5c0,0.4,0.2,0.9,0.5,1.4c0.3,0.5,0.9,0.9,1.5,1.3c0.7,0.3,1.5,0.5,2.4,0.5c1,0,1.8-0.2,2.6-0.5
				c0.7-0.3,1.4-0.9,1.9-1.6c0.5-0.7,1-1.6,1.2-2.7c0.3-1.1,0.4-2.4,0.4-3.8c0-1.3-0.1-2.5-0.4-3.5c-0.3-1-0.7-1.8-1.2-2.5
				c-0.5-0.6-1.1-1.1-1.8-1.5c-0.7-0.3-1.6-0.5-2.5-0.5c-0.8,0-1.5,0.1-2.2,0.4c-0.7,0.3-1.2,0.6-1.7,1.1c-0.5,0.5-0.8,1.1-1.1,1.7
				c-0.3,0.7-0.4,1.4-0.4,2.1c0,0.7,0.1,1.4,0.3,2c0.2,0.6,0.6,1.2,1,1.6c0.4,0.5,0.9,0.8,1.5,1.1c1.2,0.5,2.6,0.5,3.7,0
				c0.6-0.3,1.1-0.7,1.6-1.3l1-1.1l-0.1,1.5c-0.1,2.2-0.5,3.8-1.1,4.7c-0.3,0.5-0.7,0.9-1.2,1.1c-1,0.6-2.2,0.5-3.2-0.1
				c-0.5-0.3-0.8-0.8-1-1.4c-0.1-0.3-0.2-0.5-0.4-0.6C-315.2,410.6-315.4,410.6-315.6,410.6z M-311.7,407.2c-0.9,0-1.7-0.4-2.3-1.1
				c-0.6-0.7-0.9-1.7-0.9-2.8c0-1.2,0.3-2.1,0.9-2.8c0.6-0.8,1.4-1.1,2.3-1.1c0.5,0,1,0.1,1.4,0.3c0.4,0.2,0.8,0.5,1.1,0.9
				c0.3,0.4,0.5,0.8,0.7,1.3c0.2,0.5,0.2,1,0.2,1.6c0,0.7-0.2,1.4-0.5,2c-0.3,0.6-0.7,1-1.3,1.3C-310.6,407-311.2,407.2-311.7,407.2
				z M-311.8,400.3c-0.6,0-1.1,0.3-1.5,0.8c-0.4,0.5-0.7,1.3-0.7,2.2c0,0.9,0.2,1.6,0.7,2.2c0.4,0.5,0.9,0.7,1.6,0.7
				c0.4,0,0.8-0.1,1.1-0.3c0.4-0.2,0.7-0.5,0.9-0.9c0.2-0.4,0.4-0.9,0.4-1.5c0-0.5-0.1-0.9-0.2-1.3c-0.1-0.4-0.3-0.7-0.5-1
				c-0.2-0.3-0.5-0.5-0.8-0.6C-311.1,400.4-311.4,400.3-311.8,400.3z"/>
		</g>
		<g>
			<path class="st0" d="M-294.3,407.1c-0.5,0.6-1.1,1.1-1.7,1.4s-1.3,0.5-2.1,0.5c-0.7,0-1.4-0.1-2.1-0.4s-1.2-0.7-1.7-1.2
				s-0.8-1.1-1.1-1.8s-0.4-1.4-0.4-2.2c0-0.8,0.1-1.6,0.4-2.3s0.7-1.3,1.2-1.9s1.1-0.9,1.9-1.2c0.7-0.3,1.5-0.4,2.4-0.4
				c1,0,1.9,0.2,2.7,0.6c0.8,0.4,1.5,0.9,2,1.6s1,1.6,1.2,2.6s0.4,2.3,0.4,3.6c0,1.5-0.2,2.8-0.5,4s-0.7,2.1-1.3,2.9
				s-1.3,1.4-2.1,1.7s-1.7,0.6-2.8,0.6c-1,0-1.9-0.2-2.6-0.6s-1.3-0.9-1.7-1.4s-0.6-1.1-0.6-1.7c0-0.3,0.1-0.6,0.4-0.9
				s0.6-0.4,0.9-0.4c0.3,0,0.7,0.1,0.9,0.3s0.5,0.5,0.6,0.9c0.2,0.5,0.5,0.8,0.9,1.1s0.8,0.4,1.3,0.4c0.4,0,0.9-0.1,1.3-0.3
				s0.7-0.5,1-1C-294.8,410.7-294.4,409.2-294.3,407.1z M-294.6,403.5c0-0.5-0.1-1-0.2-1.5s-0.3-0.8-0.6-1.2s-0.6-0.6-0.9-0.8
				s-0.8-0.3-1.2-0.3c-0.7,0-1.4,0.3-1.9,1s-0.8,1.5-0.8,2.5c0,1,0.3,1.9,0.8,2.5s1.2,0.9,2,0.9c0.5,0,0.9-0.1,1.4-0.4
				s0.8-0.6,1.1-1.1S-294.6,404.1-294.6,403.5z"/>
			<path class="st0" d="M-297.7,415.5c-1.1,0-2.1-0.2-2.9-0.6c-0.8-0.4-1.5-1-1.9-1.6c-0.4-0.7-0.7-1.3-0.7-1.9
				c0-0.5,0.2-0.9,0.5-1.2c0.6-0.7,1.7-0.7,2.5-0.2c0.4,0.3,0.6,0.6,0.8,1.1c0.1,0.4,0.4,0.7,0.7,0.9c0.6,0.4,1.4,0.4,2.1,0.1
				c0.3-0.2,0.6-0.5,0.9-0.8c0.4-0.6,0.7-1.5,0.8-2.9c-0.3,0.2-0.6,0.4-0.9,0.6c-1.4,0.7-3.2,0.7-4.6,0c-0.7-0.3-1.3-0.8-1.8-1.3
				c-0.5-0.6-0.9-1.2-1.2-2c-0.3-0.7-0.4-1.5-0.4-2.3c0-0.9,0.2-1.7,0.5-2.5c0.3-0.8,0.7-1.5,1.3-2c0.6-0.6,1.3-1,2-1.4
				c0.8-0.3,1.6-0.5,2.6-0.5c1.1,0,2.1,0.2,2.9,0.6c0.9,0.4,1.6,1,2.2,1.7c0.6,0.7,1,1.7,1.3,2.8c0.3,1.1,0.5,2.4,0.5,3.7
				c0,1.5-0.2,2.9-0.5,4.1c-0.3,1.2-0.8,2.2-1.4,3.1c-0.6,0.8-1.4,1.5-2.3,1.9C-295.6,415.3-296.6,415.5-297.7,415.5z M-301.4,410.6
				c-0.2,0-0.4,0.1-0.6,0.2c-0.2,0.2-0.2,0.3-0.2,0.5c0,0.4,0.2,0.9,0.5,1.4c0.3,0.5,0.9,0.9,1.5,1.3c0.7,0.3,1.5,0.5,2.4,0.5
				c1,0,1.8-0.2,2.6-0.5c0.7-0.3,1.4-0.9,1.9-1.6c0.5-0.7,1-1.6,1.2-2.7c0.3-1.1,0.4-2.4,0.4-3.8c0-1.3-0.1-2.5-0.4-3.5
				c-0.3-1-0.7-1.8-1.2-2.5c-0.5-0.6-1.1-1.1-1.8-1.5c-0.7-0.3-1.6-0.5-2.5-0.5c-0.8,0-1.5,0.1-2.2,0.4c-0.7,0.3-1.2,0.6-1.7,1.1
				c-0.5,0.5-0.8,1.1-1.1,1.7c-0.3,0.7-0.4,1.4-0.4,2.1c0,0.7,0.1,1.4,0.3,2c0.2,0.6,0.6,1.2,1,1.6c0.4,0.5,0.9,0.8,1.5,1.1
				c1.2,0.5,2.6,0.5,3.7,0c0.6-0.3,1.1-0.7,1.6-1.3l1-1.1l-0.1,1.5c-0.1,2.2-0.5,3.8-1.1,4.7c-0.3,0.5-0.7,0.9-1.2,1.1
				c-1,0.6-2.2,0.5-3.2-0.1c-0.5-0.3-0.8-0.8-1-1.4c-0.1-0.3-0.2-0.5-0.4-0.6C-300.9,410.6-301.1,410.6-301.4,410.6z M-297.5,407.2
				c-0.9,0-1.7-0.4-2.3-1.1c-0.6-0.7-0.9-1.7-0.9-2.8c0-1.2,0.3-2.1,0.9-2.8c0.6-0.8,1.4-1.1,2.3-1.1c0.5,0,1,0.1,1.4,0.3
				c0.4,0.2,0.8,0.5,1.1,0.9c0.3,0.4,0.5,0.8,0.7,1.3c0.2,0.5,0.2,1,0.2,1.6c0,0.7-0.2,1.4-0.5,2c-0.3,0.6-0.7,1-1.3,1.3
				C-296.3,407-296.9,407.2-297.5,407.2z M-297.5,400.3c-0.6,0-1.1,0.3-1.5,0.8c-0.4,0.5-0.7,1.3-0.7,2.2c0,0.9,0.2,1.6,0.7,2.2
				c0.4,0.5,0.9,0.7,1.6,0.7c0.4,0,0.8-0.1,1.1-0.3c0.4-0.2,0.7-0.5,0.9-0.9c0.2-0.4,0.4-0.9,0.4-1.5c0-0.5-0.1-0.9-0.2-1.3
				c-0.1-0.4-0.3-0.7-0.5-1c-0.2-0.3-0.5-0.5-0.8-0.6C-296.9,400.4-297.2,400.3-297.5,400.3z"/>
		</g>
		<g>
			<path class="st0" d="M-283.2,404.4c0.7,0,1.3-0.2,1.9-0.6s0.8-1,0.8-1.8c0-0.6-0.2-1.1-0.6-1.6s-1-0.7-1.7-0.7
				c-0.5,0-0.9,0.1-1.2,0.2s-0.6,0.3-0.7,0.5s-0.3,0.5-0.5,0.8s-0.3,0.7-0.4,1c-0.1,0.2-0.2,0.3-0.4,0.4s-0.4,0.1-0.7,0.1
				c-0.3,0-0.6-0.1-0.9-0.4s-0.4-0.6-0.4-1c0-0.4,0.1-0.8,0.4-1.3s0.6-0.9,1.1-1.3s1.1-0.7,1.8-1c0.7-0.2,1.5-0.4,2.4-0.4
				c0.8,0,1.4,0.1,2.1,0.3c0.6,0.2,1.2,0.5,1.6,0.9s0.8,0.8,1,1.4s0.4,1.1,0.4,1.7c0,0.8-0.2,1.5-0.5,2s-0.8,1.1-1.5,1.6
				c0.6,0.3,1.1,0.7,1.5,1.1s0.7,0.9,0.9,1.4s0.3,1.1,0.3,1.7c0,0.7-0.1,1.4-0.4,2.1s-0.7,1.3-1.3,1.8s-1.2,0.9-2,1.2
				s-1.6,0.4-2.5,0.4c-0.9,0-1.8-0.2-2.5-0.5s-1.4-0.8-1.8-1.3s-0.8-1-1.1-1.6s-0.4-1-0.4-1.3c0-0.5,0.1-0.8,0.4-1.1
				s0.7-0.4,1.1-0.4c0.2,0,0.4,0.1,0.6,0.2s0.3,0.3,0.4,0.5c0.4,1.1,0.8,1.9,1.3,2.4s1.1,0.8,2,0.8c0.5,0,1-0.1,1.4-0.4
				s0.8-0.6,1.1-1.1s0.4-1,0.4-1.6c0-0.9-0.3-1.6-0.8-2.2s-1.2-0.8-2.1-0.8c-0.2,0-0.4,0-0.7,0s-0.5,0-0.6,0c-0.4,0-0.8-0.1-1-0.3
				s-0.4-0.5-0.4-0.9c0-0.4,0.1-0.7,0.4-0.9s0.7-0.3,1.3-0.3H-283.2z"/>
			<path class="st0" d="M-282.8,415.6c-1,0-1.9-0.2-2.7-0.5c-0.8-0.4-1.5-0.8-2-1.4c-0.5-0.5-0.9-1.1-1.2-1.7
				c-0.3-0.6-0.4-1.1-0.4-1.5c0-0.6,0.2-1.1,0.6-1.5c0.4-0.4,0.9-0.6,1.4-0.6c0.3,0,0.6,0.1,0.9,0.3c0.3,0.2,0.5,0.4,0.6,0.7
				c0.4,1,0.8,1.8,1.2,2.3c0.4,0.4,0.9,0.6,1.6,0.6c0.4,0,0.8-0.1,1.2-0.3c0.4-0.2,0.7-0.5,0.9-0.9c0.2-0.4,0.4-0.8,0.4-1.4
				c0-0.8-0.2-1.4-0.6-1.8c-0.4-0.4-1-0.6-1.7-0.6c-0.1,0-0.4,0-0.7,0c-0.4,0-0.6,0-0.7,0c-0.6,0-1-0.2-1.3-0.5
				c-0.3-0.3-0.5-0.7-0.5-1.3c0-0.5,0.2-1,0.6-1.3c0.4-0.3,0.9-0.5,1.6-0.5h0.5c0.6,0,1.1-0.2,1.5-0.5c0.4-0.3,0.6-0.8,0.6-1.4
				c0-0.5-0.2-0.9-0.5-1.2c-0.3-0.3-0.7-0.5-1.3-0.5c-0.4,0-0.7,0.1-1,0.2c-0.2,0.1-0.4,0.2-0.5,0.4c-0.2,0.2-0.3,0.4-0.4,0.7
				c-0.2,0.3-0.3,0.7-0.4,1c-0.1,0.3-0.4,0.5-0.7,0.6c-0.6,0.3-1.5,0.3-2.1-0.3c-0.4-0.3-0.5-0.8-0.5-1.4c0-0.5,0.1-1,0.4-1.5
				c0.3-0.5,0.7-1,1.2-1.4c0.5-0.4,1.2-0.8,1.9-1.1c1.4-0.5,3.3-0.5,4.8-0.1c0.7,0.2,1.3,0.6,1.8,1c0.5,0.4,0.9,1,1.2,1.5
				c0.3,0.6,0.4,1.2,0.4,1.9c0,0.9-0.2,1.6-0.6,2.3c-0.3,0.4-0.6,0.9-1,1.3c0.4,0.3,0.8,0.5,1.1,0.9c0.5,0.5,0.8,1,1.1,1.6
				s0.4,1.2,0.4,1.8c0,0.8-0.2,1.5-0.5,2.3c-0.3,0.7-0.8,1.4-1.4,1.9c-0.6,0.6-1.3,1-2.1,1.3C-280.9,415.4-281.9,415.6-282.8,415.6z
				 M-287.1,409.4c-0.3,0-0.6,0.1-0.8,0.3c-0.2,0.2-0.3,0.4-0.3,0.7c0,0.2,0.1,0.5,0.3,1.1c0.2,0.5,0.6,1,1,1.4
				c0.4,0.5,1,0.8,1.7,1.1c1.3,0.6,3.3,0.6,4.7,0.1c0.7-0.3,1.3-0.6,1.8-1.1c0.5-0.5,0.9-1,1.1-1.6c0.3-0.6,0.4-1.2,0.4-1.9
				c0-0.5-0.1-1-0.3-1.5s-0.5-0.9-0.8-1.2c-0.4-0.4-0.9-0.7-1.4-1l-0.6-0.3l0.6-0.5c0.6-0.5,1-1,1.4-1.5c0.3-0.5,0.4-1.1,0.4-1.8
				c0-0.5-0.1-1-0.3-1.5c-0.2-0.4-0.5-0.8-0.9-1.2c-0.4-0.3-0.9-0.6-1.5-0.8c-1.2-0.4-2.9-0.4-4.1,0.1c-0.6,0.2-1.2,0.5-1.6,0.9
				c-0.4,0.4-0.7,0.8-1,1.1c-0.2,0.4-0.3,0.7-0.3,1c0,0.3,0.1,0.5,0.2,0.7c0.2,0.2,0.4,0.2,0.5,0.2c0.2,0,0.4,0,0.5-0.1
				c0.1,0,0.2-0.1,0.2-0.1c0.1-0.3,0.3-0.6,0.4-1c0.2-0.4,0.4-0.7,0.6-1c0.2-0.3,0.5-0.5,0.9-0.7c0.4-0.2,0.8-0.2,1.4-0.2
				c0.8,0,1.5,0.3,2,0.8c0.5,0.5,0.8,1.2,0.8,1.9c0,0.9-0.3,1.7-1,2.2c-0.6,0.5-1.3,0.7-2.2,0.7h-0.5c-0.4,0-0.8,0.1-0.9,0.2
				c-0.2,0.1-0.2,0.3-0.2,0.5c0,0.3,0.1,0.5,0.2,0.5c0.1,0.1,0.4,0.2,0.7,0.2c0.1,0,0.3,0,0.6,0c0.3,0,0.6,0,0.8,0
				c1,0,1.9,0.3,2.4,0.9c0.6,0.6,0.9,1.5,0.9,2.5c0,0.7-0.2,1.3-0.5,1.9c-0.3,0.5-0.8,1-1.3,1.2c-0.5,0.3-1.1,0.4-1.6,0.4
				c-1,0-1.8-0.3-2.3-1c-0.5-0.6-1-1.4-1.4-2.6c0-0.1-0.1-0.1-0.2-0.2C-286.9,409.4-287,409.4-287.1,409.4z"/>
		</g>
	</g>
</g>
</svg>
